<svg xmlns="http://www.w3.org/2000/svg" version="1.1" xmlns:xlink="http://www.w3.org/1999/xlink" xmlns:svgjs="http://svgjs.dev/svgjs" viewBox="0 0 17.68465929713264 13.286998473330403"><g transform="matrix(1,0,0,1,5.127815052487197,5.553245100291108)"><rect width="17.68465929713264" height="17.68465929713264" x="-5.127815052487197" y="-7.752075512192227" fill="#f8f9fa"></rect><g transform="matrix(1,0,0,1,0,0)"><g clip-path="url(#SvgjsClipPath1002)"><path d=" M -1.9611334752099387 0.6284541363740939 L 0.8718654417572713 -4.278446213443538 L 6.537977770033185 -4.278446213443538 L 9.370796767320904 0.6284541363740939 L 6.537977770033185 5.535354486191726 L 0.8718654417572713 5.535354486191726 L -1.9611334752099387 0.6284541363740939 Z" fill="#f89c27" transform="matrix(1,0,0,1,0,0)" fill-rule="nonzero"></path></g></g><g transform="matrix(1,0,0,1,0,0)"><path d=" M 1.2141199060163348 0.008914243069136019 L 0.6578711385022431 1.256908272748188 L 0.566945859197055 1.256908272748188 L 0.010697091682963303 0.008914243069136019 L 0.11053661405728746 0.008914243069136019 L 0.6150827717703898 1.1392402642355917 L 1.1196289294834922 0.008914243069136019 L 1.2141199060163348 0.008914243069136019 M 2.2945209428063302 1.174897236512136 L 2.2945209428063302 1.256908272748188 L 1.4334050623277843 1.256908272748188 L 1.4334050623277843 0.008914243069136019 L 2.2677782135989215 0.008914243069136019 L 2.2677782135989215 0.09092527930518801 L 1.5243303416329723 0.09092527930518801 L 1.5243303416329723 0.5829914967215 L 2.1893328745905243 0.5829914967215 L 2.1893328745905243 0.6632196843437247 L 1.5243303416329723 0.6632196843437247 L 1.5243303416329723 1.174897236512136 L 2.2945209428063302 1.174897236512136 M 3.5104350143466383 1.256908272748188 L 3.212699295837493 0.8397216971126191 Q 3.146733897125886 0.8486359401817553 3.0914655900972425 0.8486359401817553 L 2.734895867331799 0.8486359401817553 L 2.734895867331799 1.256908272748188 L 2.643970588026611 1.256908272748188 L 2.643970588026611 0.008914243069136019 L 3.0914655900972425 0.008914243069136019 Q 3.3268016071224347 0.008914243069136019 3.4605152531594765 0.12034228143333703 Q 3.5942288991965174 0.23177031979753826 3.5942288991965174 0.42966651593235927 Q 3.5942288991965174 0.5776429508800183 3.5184578331088607 0.678373897561256 Q 3.442686767021204 0.7791048442424938 3.301841726528854 0.8201103623605197 L 3.6138402339486166 1.256908272748188 L 3.5104350143466383 1.256908272748188 M 3.0914655900972425 0.7684077525595305 Q 3.2911446348458906 0.7684077525595305 3.3963327030616965 0.6801567461750833 Q 3.5015207712775025 0.591905739790636 3.5015207712775025 0.42966651593235927 Q 3.5015207712775025 0.26742729207408256 3.3963327030616965 0.17917628568963528 Q 3.2911446348458906 0.09092527930518801 3.0914655900972425 0.09092527930518801 L 2.734895867331799 0.09092527930518801 L 2.734895867331799 0.7684077525595305 L 3.0914655900972425 0.7684077525595305 M 4.166453661711077 0.09092527930518801 L 3.717175811026618 0.09092527930518801 L 3.717175811026618 0.008914243069136019 L 4.706656791700723 0.008914243069136019 L 4.706656791700723 0.09092527930518801 L 4.257378941016264 0.09092527930518801 L 4.257378941016264 1.256908272748188 L 4.166453661711077 1.256908272748188 L 4.166453661711077 0.09092527930518801 M 5.810219190902577 1.174897236512136 L 5.810219190902577 1.256908272748188 L 4.949103310424031 1.256908272748188 L 4.949103310424031 0.008914243069136019 L 5.783476461695169 0.008914243069136019 L 5.783476461695169 0.09092527930518801 L 5.04002858972922 0.09092527930518801 L 5.04002858972922 0.5829914967215 L 5.705031122686771 0.5829914967215 L 5.705031122686771 0.6632196843437247 L 5.04002858972922 0.6632196843437247 L 5.04002858972922 1.174897236512136 L 5.810219190902577 1.174897236512136 M 6.3503831469724865 1.1829200552743584 Q 6.202406712024827 1.1000175947313928 6.1177214028680345 0.9556068570113883 Q 6.0330360937112415 0.8111961192913837 6.0330360937112415 0.632911257908662 Q 6.0330360937112415 0.4546263965259403 6.1177214028680345 0.3102156588059357 Q 6.202406712024827 0.16580492108593115 6.3503831469724865 0.08290246054296557 Q 6.498359581920145 0 6.681992989144349 0 Q 6.865626396368552 0 7.013602831316211 0.08201103623605199 Q 7.16157926626387 0.16402207247210399 7.246264575420662 0.30843281019210855 Q 7.330949884577455 0.4528435479121131 7.330949884577455 0.632911257908662 Q 7.330949884577455 0.8129789679052108 7.246264575420662 0.9573897056252154 Q 7.16157926626387 1.10180044334522 7.013602831316211 1.183811479581272 Q 6.865626396368552 1.265822515817324 6.681992989144349 1.265822515817324 Q 6.498359581920145 1.265822515817324 6.3503831469724865 1.1829200552743584 M 6.965465918742876 1.1107146864143562 Q 7.092048170324609 1.0394007418612674 7.1651449634915245 0.9137099145864487 Q 7.23824175665844 0.78801908731163 7.23824175665844 0.632911257908662 Q 7.23824175665844 0.4778034285056941 7.1651449634915245 0.3521126012308753 Q 7.092048170324609 0.22642177395605656 6.965465918742876 0.15510782940296775 Q 6.838883667161143 0.08379388484987915 6.681992989144349 0.08379388484987915 Q 6.5251023111275535 0.08379388484987915 6.397628635238908 0.15510782940296775 Q 6.270154959350261 0.22642177395605656 6.1970581661833455 0.3521126012308753 Q 6.12396137301643 0.4778034285056941 6.12396137301643 0.632911257908662 Q 6.12396137301643 0.78801908731163 6.1970581661833455 0.9137099145864487 Q 6.270154959350261 1.0394007418612674 6.397628635238908 1.1107146864143562 Q 6.5251023111275535 1.1820286309674448 6.681992989144349 1.1820286309674448 Q 6.838883667161143 1.1820286309674448 6.965465918742876 1.1107146864143562" fill="#ffffff" fill-rule="nonzero"></path></g><g transform="matrix(1,0,0,1,0,0)"><path d=" M -3.5014161656396263 6.077354486191726 Q -3.4558161656396265 6.115754486191726 -3.4558161656396265 6.182954486191726 Q -3.4558161656396265 6.250154486191725 -3.5014161656396263 6.288254486191725 Q -3.547016165639626 6.326354486191725 -3.627416165639626 6.326354486191725 L -3.7402161656396262 6.326354486191725 L -3.7402161656396262 6.458954486191725 L -3.784616165639626 6.458954486191725 L -3.784616165639626 6.0389544861917255 L -3.627416165639626 6.0389544861917255 Q -3.547016165639626 6.0389544861917255 -3.5014161656396263 6.077354486191726 M -3.5332161656396264 6.260054486191725 Q -3.5002161656396265 6.232754486191725 -3.5002161656396265 6.182954486191726 Q -3.5002161656396265 6.1319544861917255 -3.5332161656396264 6.104654486191725 Q -3.5662161656396263 6.077354486191726 -3.628616165639626 6.077354486191726 L -3.7402161656396262 6.077354486191726 L -3.7402161656396262 6.287354486191726 L -3.628616165639626 6.287354486191726 Q -3.5662161656396263 6.287354486191726 -3.5332161656396264 6.260054486191725 M -3.3538114781396264 6.0389544861917255 L -3.3094114781396264 6.0389544861917255 L -3.3094114781396264 6.458954486191725 L -3.3538114781396264 6.458954486191725 L -3.3538114781396264 6.0389544861917255 M -3.0961103062646265 6.434654486191725 Q -3.1468103062646264 6.406754486191725 -3.1753103062646266 6.358154486191726 Q -3.2038103062646264 6.309554486191725 -3.2038103062646264 6.248954486191725 Q -3.2038103062646264 6.1883544861917255 -3.1753103062646266 6.139754486191725 Q -3.1468103062646264 6.0911544861917255 -3.0961103062646265 6.063254486191726 Q -3.0454103062646265 6.035354486191725 -2.9830103062646263 6.035354486191725 Q -2.9206103062646265 6.035354486191725 -2.8705103062646264 6.0629544861917255 Q -2.8204103062646264 6.090554486191725 -2.7916103062646265 6.139454486191726 Q -2.7628103062646265 6.1883544861917255 -2.7628103062646265 6.248954486191725 Q -2.7628103062646265 6.309554486191725 -2.7916103062646265 6.358454486191725 Q -2.8204103062646264 6.407354486191726 -2.8705103062646264 6.434954486191725 Q -2.9206103062646265 6.462554486191725 -2.9830103062646263 6.462554486191725 Q -3.0454103062646265 6.462554486191725 -3.0961103062646265 6.434654486191725 M -2.8930103062646264 6.400454486191725 Q -2.8528103062646264 6.377954486191725 -2.8300103062646267 6.338054486191726 Q -2.8072103062646265 6.298154486191725 -2.8072103062646265 6.248954486191725 Q -2.8072103062646265 6.1997544861917255 -2.8300103062646267 6.159854486191725 Q -2.8528103062646264 6.119954486191725 -2.8930103062646264 6.097454486191725 Q -2.9332103062646264 6.074954486191725 -2.9830103062646263 6.074954486191725 Q -3.0328103062646266 6.074954486191725 -3.0733103062646263 6.097454486191725 Q -3.1138103062646265 6.119954486191725 -3.1369103062646264 6.159854486191725 Q -3.1600103062646263 6.1997544861917255 -3.1600103062646263 6.248954486191725 Q -3.1600103062646263 6.298154486191725 -3.1369103062646264 6.338054486191726 Q -3.1138103062646265 6.377954486191725 -3.0733103062646263 6.400454486191725 Q -3.0328103062646266 6.422954486191726 -2.9830103062646263 6.422954486191726 Q -2.9332103062646264 6.422954486191726 -2.8930103062646264 6.400454486191725 M -2.3062167515771264 6.0389544861917255 L -2.3062167515771264 6.458954486191725 L -2.3428167515771263 6.458954486191725 L -2.6128167515771263 6.118154486191726 L -2.6128167515771263 6.458954486191725 L -2.6572167515771263 6.458954486191725 L -2.6572167515771263 6.0389544861917255 L -2.6206167515771264 6.0389544861917255 L -2.3500167515771264 6.379754486191725 L -2.3500167515771264 6.0389544861917255 L -2.3062167515771264 6.0389544861917255 M -1.8664237828271266 6.420554486191725 L -1.8664237828271266 6.458954486191725 L -2.1634237828271266 6.458954486191725 L -2.1634237828271266 6.0389544861917255 L -1.8754237828271265 6.0389544861917255 L -1.8754237828271265 6.077354486191726 L -2.1190237828271266 6.077354486191726 L -2.1190237828271266 6.226754486191726 L -1.9018237828271265 6.226754486191726 L -1.9018237828271265 6.2645544861917255 L -2.1190237828271266 6.2645544861917255 L -2.1190237828271266 6.420554486191725 L -1.8664237828271266 6.420554486191725 M -1.4590199742333767 6.420554486191725 L -1.4590199742333767 6.458954486191725 L -1.7560199742333766 6.458954486191725 L -1.7560199742333766 6.0389544861917255 L -1.4680199742333766 6.0389544861917255 L -1.4680199742333766 6.077354486191726 L -1.7116199742333766 6.077354486191726 L -1.7116199742333766 6.226754486191726 L -1.4944199742333768 6.226754486191726 L -1.4944199742333768 6.2645544861917255 L -1.7116199742333766 6.2645544861917255 L -1.7116199742333766 6.420554486191725 L -1.4590199742333767 6.420554486191725 M -1.0618161656396268 6.458954486191725 L -1.1578161656396269 6.323954486191726 Q -1.1740161656396269 6.325754486191725 -1.1914161656396267 6.325754486191725 L -1.3042161656396267 6.325754486191725 L -1.3042161656396267 6.458954486191725 L -1.3486161656396267 6.458954486191725 L -1.3486161656396267 6.0389544861917255 L -1.1914161656396267 6.0389544861917255 Q -1.1110161656396267 6.0389544861917255 -1.0654161656396268 6.077354486191726 Q -1.0198161656396267 6.115754486191726 -1.0198161656396267 6.182954486191726 Q -1.0198161656396267 6.2321544861917255 -1.0447161656396267 6.266054486191726 Q -1.0696161656396268 6.299954486191726 -1.1158161656396268 6.314954486191725 L -1.0132161656396268 6.458954486191725 L -1.0618161656396268 6.458954486191725 M -1.0972161656396269 6.2603544861917255 Q -1.0642161656396267 6.232754486191725 -1.0642161656396267 6.182954486191726 Q -1.0642161656396267 6.1319544861917255 -1.0972161656396269 6.104654486191725 Q -1.1302161656396268 6.077354486191726 -1.1926161656396268 6.077354486191726 L -1.3042161656396267 6.077354486191726 L -1.3042161656396267 6.287954486191725 L -1.1926161656396268 6.287954486191725 Q -1.1302161656396268 6.287954486191725 -1.0972161656396269 6.2603544861917255 M -0.9088026890771268 6.0389544861917255 L -0.8644026890771268 6.0389544861917255 L -0.8644026890771268 6.458954486191725 L -0.9088026890771268 6.458954486191725 L -0.9088026890771268 6.0389544861917255 M -0.3706015172021269 6.0389544861917255 L -0.3706015172021269 6.458954486191725 L -0.4072015172021269 6.458954486191725 L -0.6772015172021268 6.118154486191726 L -0.6772015172021268 6.458954486191725 L -0.7216015172021268 6.458954486191725 L -0.7216015172021268 6.0389544861917255 L -0.6850015172021269 6.0389544861917255 L -0.41440151720212687 6.379754486191725 L -0.41440151720212687 6.0389544861917255 L -0.3706015172021269 6.0389544861917255 M 0.067991451547873 6.248954486191725 L 0.11059145154787298 6.248954486191725 L 0.11059145154787298 6.409154486191725 Q 0.081191451547873 6.434954486191725 0.04099145154787298 6.448754486191725 Q 0.0007914515478730233 6.462554486191725 -0.04360854845212697 6.462554486191725 Q -0.10660854845212697 6.462554486191725 -0.15700854845212697 6.434954486191725 Q -0.20740854845212697 6.407354486191726 -0.23620854845212697 6.358454486191725 Q -0.26500854845212696 6.309554486191725 -0.26500854845212696 6.248954486191725 Q -0.26500854845212696 6.1883544861917255 -0.23620854845212697 6.139454486191726 Q -0.20740854845212697 6.090554486191725 -0.15700854845212697 6.0629544861917255 Q -0.10660854845212697 6.035354486191725 -0.04300854845212698 6.035354486191725 Q 0.004991451547873005 6.035354486191725 0.04519145154787302 6.050654486191726 Q 0.08539145154787298 6.065954486191726 0.11299145154787299 6.095954486191726 L 0.08539145154787298 6.124154486191726 Q 0.03559145154787302 6.074954486191725 -0.04120854845212696 6.074954486191725 Q -0.09220854845212698 6.074954486191725 -0.13330854845212697 6.097454486191725 Q -0.17440854845212697 6.119954486191725 -0.19780854845212698 6.159854486191725 Q -0.22120854845212695 6.1997544861917255 -0.22120854845212695 6.248954486191725 Q -0.22120854845212695 6.298154486191725 -0.19780854845212698 6.337754486191725 Q -0.17440854845212697 6.3773544861917255 -0.13360854845212697 6.400154486191726 Q -0.092808548452127 6.422954486191726 -0.041808548452127 6.422954486191726 Q 0.02299145154787302 6.422954486191726 0.067991451547873 6.390554486191726 L 0.067991451547873 6.248954486191725 M 0.40521195936037313 6.0389544861917255 L 0.4496119593603731 6.0389544861917255 L 0.4496119593603731 6.420554486191725 L 0.6848119593603731 6.420554486191725 L 0.6848119593603731 6.458954486191725 L 0.40521195936037313 6.458954486191725 L 0.40521195936037313 6.0389544861917255 M 0.7646055140478731 6.0389544861917255 L 0.8090055140478731 6.0389544861917255 L 0.8090055140478731 6.458954486191725 L 0.7646055140478731 6.458954486191725 L 0.7646055140478731 6.0389544861917255 M 0.9962066859228731 6.077354486191726 L 0.9962066859228731 6.242354486191726 L 1.2134066859228732 6.242354486191726 L 1.2134066859228732 6.280754486191725 L 0.9962066859228731 6.280754486191725 L 0.9962066859228731 6.458954486191725 L 0.9518066859228731 6.458954486191725 L 0.9518066859228731 6.0389544861917255 L 1.2398066859228731 6.0389544861917255 L 1.2398066859228731 6.077354486191726 L 0.9962066859228731 6.077354486191726 M 1.634604049204123 6.420554486191725 L 1.634604049204123 6.458954486191725 L 1.337604049204123 6.458954486191725 L 1.337604049204123 6.0389544861917255 L 1.625604049204123 6.0389544861917255 L 1.625604049204123 6.077354486191726 L 1.382004049204123 6.077354486191726 L 1.382004049204123 6.226754486191726 L 1.5992040492041228 6.226754486191726 L 1.5992040492041228 6.2645544861917255 L 1.382004049204123 6.2645544861917255 L 1.382004049204123 6.420554486191725 L 1.634604049204123 6.420554486191725 M 1.769613717172873 6.405854486191726 Q 1.778613717172873 6.415154486191725 1.778613717172873 6.428954486191725 Q 1.778613717172873 6.436154486191725 1.776513717172873 6.444554486191725 Q 1.774413717172873 6.452954486191725 1.770213717172873 6.463754486191726 L 1.745013717172873 6.5465544861917255 L 1.716213717172873 6.5465544861917255 L 1.736613717172873 6.459554486191726 Q 1.727013717172873 6.456554486191726 1.721013717172873 6.448454486191725 Q 1.715013717172873 6.440354486191725 1.715013717172873 6.428954486191725 Q 1.715013717172873 6.415154486191725 1.724013717172873 6.405854486191726 Q 1.733013717172873 6.396554486191725 1.746813717172873 6.396554486191725 Q 1.760613717172873 6.396554486191725 1.769613717172873 6.405854486191726 M 2.129013131235373 6.077354486191726 L 1.9814131312353729 6.077354486191726 L 1.9814131312353729 6.0389544861917255 L 2.321013131235373 6.0389544861917255 L 2.321013131235373 6.077354486191726 L 2.173413131235373 6.077354486191726 L 2.173413131235373 6.458954486191725 L 2.129013131235373 6.458954486191725 L 2.129013131235373 6.077354486191726 M 2.6845978968603728 6.458954486191725 L 2.5885978968603727 6.323954486191726 Q 2.5723978968603727 6.325754486191725 2.554997896860373 6.325754486191725 L 2.442197896860373 6.325754486191725 L 2.442197896860373 6.458954486191725 L 2.397797896860373 6.458954486191725 L 2.397797896860373 6.0389544861917255 L 2.554997896860373 6.0389544861917255 Q 2.635397896860373 6.0389544861917255 2.6809978968603727 6.077354486191726 Q 2.7265978968603726 6.115754486191726 2.7265978968603726 6.182954486191726 Q 2.7265978968603726 6.2321544861917255 2.701697896860373 6.266054486191726 Q 2.6767978968603727 6.299954486191726 2.630597896860373 6.314954486191725 L 2.7331978968603727 6.458954486191725 L 2.6845978968603728 6.458954486191725 M 2.6491978968603727 6.2603544861917255 Q 2.6821978968603726 6.232754486191725 2.6821978968603726 6.182954486191726 Q 2.6821978968603726 6.1319544861917255 2.6491978968603727 6.104654486191725 Q 2.6161978968603727 6.077354486191726 2.553797896860373 6.077354486191726 L 2.442197896860373 6.077354486191726 L 2.442197896860373 6.287954486191725 L 2.553797896860373 6.287954486191725 Q 2.6161978968603727 6.287954486191725 2.6491978968603727 6.2603544861917255 M 3.101011373422873 6.346754486191726 L 2.867011373422873 6.346754486191726 L 2.816611373422873 6.458954486191725 L 2.770411373422873 6.458954486191725 L 2.962411373422873 6.0389544861917255 L 3.006211373422873 6.0389544861917255 L 3.1982113734228728 6.458954486191725 L 3.151411373422873 6.458954486191725 L 3.101011373422873 6.346754486191726 M 3.084811373422873 6.310754486191725 L 2.984011373422873 6.085154486191725 L 2.883211373422873 6.310754486191725 L 3.084811373422873 6.310754486191725 M 3.624799361704123 6.0389544861917255 L 3.624799361704123 6.458954486191725 L 3.588199361704123 6.458954486191725 L 3.318199361704123 6.118154486191726 L 3.318199361704123 6.458954486191725 L 3.273799361704123 6.458954486191725 L 3.273799361704123 6.0389544861917255 L 3.310399361704123 6.0389544861917255 L 3.580999361704123 6.379754486191725 L 3.580999361704123 6.0389544861917255 L 3.624799361704123 6.0389544861917255 M 3.793692330454123 6.447554486191725 Q 3.750792330454123 6.432554486191726 3.7273923304541228 6.407954486191725 L 3.7447923304541226 6.373754486191725 Q 3.767592330454123 6.396554486191725 3.8053923304541226 6.410654486191725 Q 3.843192330454123 6.424754486191725 3.883392330454123 6.424754486191725 Q 3.939792330454123 6.424754486191725 3.967992330454123 6.4040544861917255 Q 3.996192330454123 6.383354486191726 3.996192330454123 6.350354486191725 Q 3.996192330454123 6.3251544861917255 3.9808923304541226 6.310154486191726 Q 3.9655923304541227 6.295154486191725 3.943392330454123 6.2870544861917255 Q 3.9211923304541227 6.278954486191726 3.8815923304541227 6.269354486191725 Q 3.8341923304541226 6.257354486191725 3.8059923304541226 6.2462544861917255 Q 3.7777923304541225 6.235154486191726 3.7576923304541228 6.2123544861917255 Q 3.737592330454123 6.189554486191725 3.737592330454123 6.150554486191726 Q 3.737592330454123 6.118754486191725 3.754392330454123 6.092654486191726 Q 3.771192330454123 6.066554486191725 3.8059923304541226 6.050954486191725 Q 3.8407923304541227 6.035354486191725 3.892392330454123 6.035354486191725 Q 3.928392330454123 6.035354486191725 3.962892330454123 6.045254486191725 Q 3.997392330454123 6.055154486191725 4.022592330454123 6.072554486191725 L 4.0075923304541226 6.107954486191725 Q 3.981192330454123 6.090554486191725 3.9511923304541225 6.081854486191725 Q 3.9211923304541227 6.073154486191726 3.892392330454123 6.073154486191726 Q 3.8371923304541227 6.073154486191726 3.809292330454123 6.094454486191726 Q 3.7813923304541226 6.115754486191726 3.7813923304541226 6.149354486191726 Q 3.7813923304541226 6.174554486191726 3.796692330454123 6.1898544861917255 Q 3.811992330454123 6.205154486191725 3.8350923304541227 6.213254486191725 Q 3.8581923304541226 6.221354486191726 3.8971923304541227 6.230954486191726 Q 3.943392330454123 6.242354486191726 3.9718923304541227 6.253454486191726 Q 4.0003923304541225 6.2645544861917255 4.0201923304541225 6.2870544861917255 Q 4.0399923304541225 6.309554486191725 4.0399923304541225 6.347954486191726 Q 4.0399923304541225 6.379754486191725 4.022892330454122 6.405854486191726 Q 4.005792330454122 6.431954486191725 3.9703923304541227 6.447254486191725 Q 3.9349923304541226 6.462554486191725 3.883392330454123 6.462554486191725 Q 3.8365923304541227 6.462554486191725 3.793692330454123 6.447554486191725 M 4.1869864710791225 6.077354486191726 L 4.1869864710791225 6.242354486191726 L 4.4041864710791225 6.242354486191726 L 4.4041864710791225 6.280754486191725 L 4.1869864710791225 6.280754486191725 L 4.1869864710791225 6.458954486191725 L 4.142586471079122 6.458954486191725 L 4.142586471079122 6.0389544861917255 L 4.430586471079122 6.0389544861917255 L 4.430586471079122 6.077354486191726 L 4.1869864710791225 6.077354486191726 M 4.593500533579122 6.434654486191725 Q 4.542800533579122 6.406754486191725 4.514300533579123 6.358154486191726 Q 4.4858005335791225 6.309554486191725 4.4858005335791225 6.248954486191725 Q 4.4858005335791225 6.1883544861917255 4.514300533579123 6.139754486191725 Q 4.542800533579122 6.0911544861917255 4.593500533579122 6.063254486191726 Q 4.644200533579122 6.035354486191725 4.706600533579122 6.035354486191725 Q 4.769000533579122 6.035354486191725 4.819100533579122 6.0629544861917255 Q 4.869200533579122 6.090554486191725 4.898000533579122 6.139454486191726 Q 4.926800533579122 6.1883544861917255 4.926800533579122 6.248954486191725 Q 4.926800533579122 6.309554486191725 4.898000533579122 6.358454486191725 Q 4.869200533579122 6.407354486191726 4.819100533579122 6.434954486191725 Q 4.769000533579122 6.462554486191725 4.706600533579122 6.462554486191725 Q 4.644200533579122 6.462554486191725 4.593500533579122 6.434654486191725 M 4.796600533579122 6.400454486191725 Q 4.836800533579122 6.377954486191725 4.859600533579123 6.338054486191726 Q 4.882400533579123 6.298154486191725 4.882400533579123 6.248954486191725 Q 4.882400533579123 6.1997544861917255 4.859600533579123 6.159854486191725 Q 4.836800533579122 6.119954486191725 4.796600533579122 6.097454486191725 Q 4.756400533579122 6.074954486191725 4.706600533579122 6.074954486191725 Q 4.656800533579123 6.074954486191725 4.616300533579122 6.097454486191725 Q 4.575800533579122 6.119954486191725 4.552700533579122 6.159854486191725 Q 4.5296005335791225 6.1997544861917255 4.5296005335791225 6.248954486191725 Q 4.5296005335791225 6.298154486191725 4.552700533579122 6.338054486191726 Q 4.575800533579122 6.377954486191725 4.616300533579122 6.400454486191725 Q 4.656800533579123 6.422954486191726 4.706600533579122 6.422954486191726 Q 4.756400533579122 6.422954486191726 4.796600533579122 6.400454486191725 M 5.319194088266622 6.458954486191725 L 5.223194088266622 6.323954486191726 Q 5.206994088266622 6.325754486191725 5.189594088266622 6.325754486191725 L 5.076794088266622 6.325754486191725 L 5.076794088266622 6.458954486191725 L 5.032394088266622 6.458954486191725 L 5.032394088266622 6.0389544861917255 L 5.189594088266622 6.0389544861917255 Q 5.269994088266622 6.0389544861917255 5.315594088266622 6.077354486191726 Q 5.361194088266622 6.115754486191726 5.361194088266622 6.182954486191726 Q 5.361194088266622 6.2321544861917255 5.336294088266622 6.266054486191726 Q 5.311394088266622 6.299954486191726 5.265194088266622 6.314954486191725 L 5.367794088266622 6.458954486191725 L 5.319194088266622 6.458954486191725 M 5.283794088266622 6.2603544861917255 Q 5.316794088266622 6.232754486191725 5.316794088266622 6.182954486191726 Q 5.316794088266622 6.1319544861917255 5.283794088266622 6.104654486191725 Q 5.250794088266622 6.077354486191726 5.188394088266622 6.077354486191726 L 5.076794088266622 6.077354486191726 L 5.076794088266622 6.287954486191725 L 5.188394088266622 6.287954486191725 Q 5.250794088266622 6.287954486191725 5.283794088266622 6.2603544861917255 M 5.908407564829122 6.0389544861917255 L 5.908407564829122 6.458954486191725 L 5.8658075648291215 6.458954486191725 L 5.8658075648291215 6.122954486191725 L 5.700807564829121 6.4055544861917255 L 5.6798075648291215 6.4055544861917255 L 5.5148075648291215 6.124754486191725 L 5.5148075648291215 6.458954486191725 L 5.472207564829121 6.458954486191725 L 5.472207564829121 6.0389544861917255 L 5.508807564829122 6.0389544861917255 L 5.691207564829122 6.350354486191725 L 5.871807564829122 6.0389544861917255 L 5.908407564829122 6.0389544861917255 M 6.051217818735371 6.0389544861917255 L 6.095617818735372 6.0389544861917255 L 6.095617818735372 6.458954486191725 L 6.051217818735371 6.458954486191725 L 6.051217818735371 6.0389544861917255 M 6.589418990610372 6.0389544861917255 L 6.589418990610372 6.458954486191725 L 6.552818990610372 6.458954486191725 L 6.282818990610372 6.118154486191726 L 6.282818990610372 6.458954486191725 L 6.238418990610372 6.458954486191725 L 6.238418990610372 6.0389544861917255 L 6.275018990610373 6.0389544861917255 L 6.545618990610373 6.379754486191725 L 6.545618990610373 6.0389544861917255 L 6.589418990610372 6.0389544861917255 M 7.028011959360373 6.248954486191725 L 7.070611959360372 6.248954486191725 L 7.070611959360372 6.409154486191725 Q 7.041211959360372 6.434954486191725 7.001011959360373 6.448754486191725 Q 6.960811959360372 6.462554486191725 6.916411959360373 6.462554486191725 Q 6.853411959360372 6.462554486191725 6.803011959360372 6.434954486191725 Q 6.752611959360372 6.407354486191726 6.723811959360372 6.358454486191725 Q 6.6950119593603725 6.309554486191725 6.6950119593603725 6.248954486191725 Q 6.6950119593603725 6.1883544861917255 6.723811959360372 6.139454486191726 Q 6.752611959360372 6.090554486191725 6.803011959360372 6.0629544861917255 Q 6.853411959360372 6.035354486191725 6.917011959360372 6.035354486191725 Q 6.965011959360372 6.035354486191725 7.0052119593603726 6.050654486191726 Q 7.045411959360372 6.065954486191726 7.073011959360373 6.095954486191726 L 7.045411959360372 6.124154486191726 Q 6.995611959360373 6.074954486191725 6.918811959360372 6.074954486191725 Q 6.867811959360372 6.074954486191725 6.826711959360372 6.097454486191725 Q 6.785611959360373 6.119954486191725 6.762211959360372 6.159854486191725 Q 6.738811959360373 6.1997544861917255 6.738811959360373 6.248954486191725 Q 6.738811959360373 6.298154486191725 6.762211959360372 6.337754486191725 Q 6.785611959360373 6.3773544861917255 6.826411959360373 6.400154486191726 Q 6.867211959360373 6.422954486191726 6.918211959360372 6.422954486191726 Q 6.983011959360373 6.422954486191726 7.028011959360373 6.390554486191726 L 7.028011959360373 6.248954486191725 M 7.446832467172873 6.077354486191726 L 7.299232467172873 6.077354486191726 L 7.299232467172873 6.0389544861917255 L 7.638832467172873 6.0389544861917255 L 7.638832467172873 6.077354486191726 L 7.491232467172873 6.077354486191726 L 7.491232467172873 6.458954486191725 L 7.446832467172873 6.458954486191725 L 7.446832467172873 6.077354486191726 M 7.780111373422873 6.434654486191725 Q 7.729411373422873 6.406754486191725 7.700911373422874 6.358154486191726 Q 7.672411373422873 6.309554486191725 7.672411373422873 6.248954486191725 Q 7.672411373422873 6.1883544861917255 7.700911373422874 6.139754486191725 Q 7.729411373422873 6.0911544861917255 7.780111373422873 6.063254486191726 Q 7.830811373422874 6.035354486191725 7.893211373422873 6.035354486191725 Q 7.955611373422873 6.035354486191725 8.005711373422873 6.0629544861917255 Q 8.055811373422873 6.090554486191725 8.084611373422874 6.139454486191726 Q 8.113411373422874 6.1883544861917255 8.113411373422874 6.248954486191725 Q 8.113411373422874 6.309554486191725 8.084611373422874 6.358454486191725 Q 8.055811373422873 6.407354486191726 8.005711373422873 6.434954486191725 Q 7.955611373422873 6.462554486191725 7.893211373422873 6.462554486191725 Q 7.830811373422874 6.462554486191725 7.780111373422873 6.434654486191725 M 7.983211373422873 6.400454486191725 Q 8.023411373422872 6.377954486191725 8.046211373422873 6.338054486191726 Q 8.069011373422873 6.298154486191725 8.069011373422873 6.248954486191725 Q 8.069011373422873 6.1997544861917255 8.046211373422873 6.159854486191725 Q 8.023411373422872 6.119954486191725 7.983211373422873 6.097454486191725 Q 7.943011373422873 6.074954486191725 7.893211373422873 6.074954486191725 Q 7.843411373422874 6.074954486191725 7.802911373422873 6.097454486191725 Q 7.762411373422873 6.119954486191725 7.739311373422873 6.159854486191725 Q 7.716211373422873 6.1997544861917255 7.716211373422873 6.248954486191725 Q 7.716211373422873 6.298154486191725 7.739311373422873 6.338054486191726 Q 7.762411373422873 6.377954486191725 7.802911373422873 6.400454486191725 Q 7.843411373422874 6.422954486191726 7.893211373422873 6.422954486191726 Q 7.943011373422873 6.422954486191726 7.983211373422873 6.400454486191725 M 8.655204928110374 6.0389544861917255 L 8.655204928110374 6.458954486191725 L 8.612604928110374 6.458954486191725 L 8.612604928110374 6.122954486191725 L 8.447604928110374 6.4055544861917255 L 8.426604928110374 6.4055544861917255 L 8.261604928110375 6.124754486191725 L 8.261604928110375 6.458954486191725 L 8.219004928110374 6.458954486191725 L 8.219004928110374 6.0389544861917255 L 8.255604928110374 6.0389544861917255 L 8.438004928110374 6.350354486191725 L 8.618604928110374 6.0389544861917255 L 8.655204928110374 6.0389544861917255 M 8.868515182016623 6.434654486191725 Q 8.817815182016624 6.406754486191725 8.789315182016622 6.358154486191726 Q 8.760815182016623 6.309554486191725 8.760815182016623 6.248954486191725 Q 8.760815182016623 6.1883544861917255 8.789315182016622 6.139754486191725 Q 8.817815182016624 6.0911544861917255 8.868515182016623 6.063254486191726 Q 8.919215182016623 6.035354486191725 8.981615182016624 6.035354486191725 Q 9.044015182016622 6.035354486191725 9.094115182016623 6.0629544861917255 Q 9.144215182016623 6.090554486191725 9.173015182016623 6.139454486191726 Q 9.201815182016624 6.1883544861917255 9.201815182016624 6.248954486191725 Q 9.201815182016624 6.309554486191725 9.173015182016623 6.358454486191725 Q 9.144215182016623 6.407354486191726 9.094115182016623 6.434954486191725 Q 9.044015182016622 6.462554486191725 8.981615182016624 6.462554486191725 Q 8.919215182016623 6.462554486191725 8.868515182016623 6.434654486191725 M 9.071615182016624 6.400454486191725 Q 9.111815182016622 6.377954486191725 9.134615182016622 6.338054486191726 Q 9.157415182016623 6.298154486191725 9.157415182016623 6.248954486191725 Q 9.157415182016623 6.1997544861917255 9.134615182016622 6.159854486191725 Q 9.111815182016622 6.119954486191725 9.071615182016624 6.097454486191725 Q 9.031415182016623 6.074954486191725 8.981615182016624 6.074954486191725 Q 8.931815182016623 6.074954486191725 8.891315182016623 6.097454486191725 Q 8.850815182016623 6.119954486191725 8.827715182016624 6.159854486191725 Q 8.804615182016622 6.1997544861917255 8.804615182016622 6.248954486191725 Q 8.804615182016622 6.298154486191725 8.827715182016624 6.338054486191726 Q 8.850815182016623 6.377954486191725 8.891315182016623 6.400454486191725 Q 8.931815182016623 6.422954486191726 8.981615182016624 6.422954486191726 Q 9.031415182016623 6.422954486191726 9.071615182016624 6.400454486191725 M 9.594208736704124 6.458954486191725 L 9.498208736704123 6.323954486191726 Q 9.482008736704124 6.325754486191725 9.464608736704124 6.325754486191725 L 9.351808736704124 6.325754486191725 L 9.351808736704124 6.458954486191725 L 9.307408736704124 6.458954486191725 L 9.307408736704124 6.0389544861917255 L 9.464608736704124 6.0389544861917255 Q 9.545008736704123 6.0389544861917255 9.590608736704123 6.077354486191726 Q 9.636208736704123 6.115754486191726 9.636208736704123 6.182954486191726 Q 9.636208736704123 6.2321544861917255 9.611308736704123 6.266054486191726 Q 9.586408736704124 6.299954486191726 9.540208736704123 6.314954486191725 L 9.642808736704124 6.458954486191725 L 9.594208736704124 6.458954486191725 M 9.558808736704124 6.2603544861917255 Q 9.591808736704124 6.232754486191725 9.591808736704124 6.182954486191726 Q 9.591808736704124 6.1319544861917255 9.558808736704124 6.104654486191725 Q 9.525808736704123 6.077354486191726 9.463408736704123 6.077354486191726 L 9.351808736704124 6.077354486191726 L 9.351808736704124 6.287954486191725 L 9.463408736704123 6.287954486191725 Q 9.525808736704123 6.287954486191725 9.558808736704124 6.2603544861917255 M 10.034022213266624 6.458954486191725 L 9.938022213266624 6.323954486191726 Q 9.921822213266625 6.325754486191725 9.904422213266624 6.325754486191725 L 9.791622213266624 6.325754486191725 L 9.791622213266624 6.458954486191725 L 9.747222213266625 6.458954486191725 L 9.747222213266625 6.0389544861917255 L 9.904422213266624 6.0389544861917255 Q 9.984822213266623 6.0389544861917255 10.030422213266624 6.077354486191726 Q 10.076022213266624 6.115754486191726 10.076022213266624 6.182954486191726 Q 10.076022213266624 6.2321544861917255 10.051122213266623 6.266054486191726 Q 10.026222213266625 6.299954486191726 9.980022213266624 6.314954486191725 L 10.082622213266625 6.458954486191725 L 10.034022213266624 6.458954486191725 M 9.998622213266625 6.2603544861917255 Q 10.031622213266624 6.232754486191725 10.031622213266624 6.182954486191726 Q 10.031622213266624 6.1319544861917255 9.998622213266625 6.104654486191725 Q 9.965622213266624 6.077354486191726 9.903222213266623 6.077354486191726 L 9.791622213266624 6.077354486191726 L 9.791622213266624 6.287954486191725 L 9.903222213266623 6.287954486191725 Q 9.965622213266624 6.287954486191725 9.998622213266625 6.2603544861917255 M 10.257535689829124 6.434654486191725 Q 10.206835689829125 6.406754486191725 10.178335689829124 6.358154486191726 Q 10.149835689829125 6.309554486191725 10.149835689829125 6.248954486191725 Q 10.149835689829125 6.1883544861917255 10.178335689829124 6.139754486191725 Q 10.206835689829125 6.0911544861917255 10.257535689829124 6.063254486191726 Q 10.308235689829125 6.035354486191725 10.370635689829125 6.035354486191725 Q 10.433035689829124 6.035354486191725 10.483135689829124 6.0629544861917255 Q 10.533235689829125 6.090554486191725 10.562035689829125 6.139454486191726 Q 10.590835689829124 6.1883544861917255 10.590835689829124 6.248954486191725 Q 10.590835689829124 6.309554486191725 10.562035689829125 6.358454486191725 Q 10.533235689829125 6.407354486191726 10.483135689829124 6.434954486191725 Q 10.433035689829124 6.462554486191725 10.370635689829125 6.462554486191725 Q 10.308235689829125 6.462554486191725 10.257535689829124 6.434654486191725 M 10.460635689829125 6.400454486191725 Q 10.500835689829124 6.377954486191725 10.523635689829124 6.338054486191726 Q 10.546435689829124 6.298154486191725 10.546435689829124 6.248954486191725 Q 10.546435689829124 6.1997544861917255 10.523635689829124 6.159854486191725 Q 10.500835689829124 6.119954486191725 10.460635689829125 6.097454486191725 Q 10.420435689829125 6.074954486191725 10.370635689829125 6.074954486191725 Q 10.320835689829124 6.074954486191725 10.280335689829124 6.097454486191725 Q 10.239835689829125 6.119954486191725 10.216735689829125 6.159854486191725 Q 10.193635689829124 6.1997544861917255 10.193635689829124 6.248954486191725 Q 10.193635689829124 6.298154486191725 10.216735689829125 6.338054486191726 Q 10.239835689829125 6.377954486191725 10.280335689829124 6.400454486191725 Q 10.320835689829124 6.422954486191726 10.370635689829125 6.422954486191726 Q 10.420435689829125 6.422954486191726 10.460635689829125 6.400454486191725 M 11.260431588266623 6.0389544861917255 L 11.118831588266623 6.458954486191725 L 11.072031588266624 6.458954486191725 L 10.949031588266624 6.100754486191725 L 10.825431588266625 6.458954486191725 L 10.779231588266624 6.458954486191725 L 10.637631588266624 6.0389544861917255 L 10.683231588266624 6.0389544861917255 L 10.804431588266624 6.400154486191726 L 10.929831588266623 6.0389544861917255 L 10.971231588266624 6.0389544861917255 L 11.094831588266624 6.401954486191725 L 11.217831588266623 6.0389544861917255 L 11.260431588266623 6.0389544861917255" fill="#324663" fill-rule="nonzero"></path></g></g><defs><clipPath id="SvgjsClipPath1002"><path d=" M -1.9611334752099387 -4.278446213443538 h 11.351296142578123 v 9.813800699635264 h -11.351296142578123 Z"></path></clipPath></defs></svg>